<svg version="1.1" height="2619" viewBox="0.0 0.0 960.0 540.0" fill="none" stroke="none" stroke-linecap="square" stroke-miterlimit="10" xmlns:xlink="http://www.w3.org/1999/xlink" xmlns="http://www.w3.org/2000/svg"><clipPath id="p.0"><path d="m0 0l960.0 0l0 540.0l-960.0 0l0 -540.0z" clip-rule="nonzero"/></clipPath><g clip-path="url(#p.0)"><path fill="#329874" d="m0 0l960.0 0l0 540.0l-960.0 0z" fill-rule="evenodd"/><path fill="#000000" fill-opacity="0.0" d="m102.34646 73.543304l607.4961 0l0 392.9134l-607.4961 0z" fill-rule="evenodd"/><path fill="#ffffff" d="m153.34645 178.5433l-14.59375 -26.5l-4.109375 0l0 26.5l-17.093742 0l0 -70.203125l28.703117 0q8.296875 0 14.140625 2.90625q5.859375 2.890625 8.75 7.953125q2.90625 5.046875 2.90625 11.25q0 7.0 -3.953125 12.5q-3.953125 5.5 -11.65625 7.796875l16.203125 27.796875l-19.296875 0zm-18.703125 -38.59375l10.609375 0q4.6875 0 7.03125 -2.296875q2.359375 -2.3125 2.359375 -6.515625q0 -4.0 -2.359375 -6.296875q-2.34375 -2.296875 -7.03125 -2.296875l-10.609375 0l0 17.40625zm44.699936 10.59375q0 -8.59375 3.25 -15.09375q3.25 -6.5 8.84375 -10.0q5.609375 -3.5 12.515625 -3.5q5.890625 0 10.34375 2.40625q4.453125 2.390625 6.84375 6.28125l0 -7.890625l17.109375 0l0 55.796875l-17.109375 0l0 -7.90625q-2.5 3.90625 -6.953125 6.3125q-4.4375 2.390625 -10.34375 2.390625q-6.796875 0 -12.40625 -3.546875q-5.59375 -3.546875 -8.84375 -10.09375q-3.25 -6.5625 -3.25 -15.15625zm41.796875 0.09375q0 -6.390625 -3.546875 -10.09375q-3.546875 -3.703125 -8.640625 -3.703125q-5.109375 0 -8.65625 3.65625q-3.546875 3.640625 -3.546875 10.046875q0 6.40625 3.546875 10.15625q3.546875 3.75 8.65625 3.75q5.09375 0 8.640625 -3.703125q3.546875 -3.703125 3.546875 -10.109375zm26.103058 -0.09375q0 -8.59375 3.25 -15.09375q3.25 -6.5 8.84375 -10.0q5.609375 -3.5 12.515625 -3.5q5.5 0 10.046875 2.296875q4.546875 2.296875 7.140625 6.203125l0 -25.90625l17.109375 0l0 74.0l-17.109375 0l0 -8.0q-2.390625 4.0 -6.84375 6.40625q-4.453125 2.390625 -10.34375 2.390625q-6.90625 0 -12.515625 -3.546875q-5.59375 -3.546875 -8.84375 -10.09375q-3.25 -6.5625 -3.25 -15.15625zm41.796875 0.09375q0 -6.390625 -3.546875 -10.09375q-3.546875 -3.703125 -8.640625 -3.703125q-5.109375 0 -8.65625 3.65625q-3.546875 3.640625 -3.546875 10.046875q0 6.40625 3.546875 10.15625q3.546875 3.75 8.65625 3.75q5.09375 0 8.640625 -3.703125q3.546875 -3.703125 3.546875 -10.109375zm26.103058 -0.09375q0 -8.59375 3.25 -15.09375q3.25 -6.5 8.84375 -10.0q5.609375 -3.5 12.515625 -3.5q5.890625 0 10.34375 2.40625q4.453125 2.390625 6.84375 6.28125l0 -7.890625l17.109406 0l0 55.796875l-17.109406 0l0 -7.90625q-2.5 3.90625 -6.953125 6.3125q-4.4375 2.390625 -10.34375 2.390625q-6.796875 0 -12.40625 -3.546875q-5.59375 -3.546875 -8.84375 -10.09375q-3.25 -6.5625 -3.25 -15.15625zm41.796875 0.09375q0 -6.390625 -3.546875 -10.09375q-3.546875 -3.703125 -8.640625 -3.703125q-5.109375 0 -8.65625 3.65625q-3.546875 3.640625 -3.546875 10.046875q0 6.40625 3.546875 10.15625q3.546875 3.75 8.65625 3.75q5.09375 0 8.640625 -3.703125q3.546875 -3.703125 3.546875 -10.109375zm46.603058 -18.59375q3.0 -4.59375 7.5 -7.25q4.5 -2.65625 10.0 -2.65625l0 18.109375l-4.703125 0q-6.390625 0 -9.59375 2.75q-3.203125 2.75 -3.203125 9.640625l0 25.90625l-17.09375 0l0 -55.796875l17.09375 0l0 9.296875z" fill-rule="nonzero"/><path fill="#ffffff" d="m138.7527 241.94955q5.890625 0 10.34375 2.40625q4.453125 2.390625 6.84375 6.28125l0 -7.890625l17.109375 0l0 55.703125q0 7.6875 -3.0625 13.9375q-3.046875 6.25 -9.296875 9.953125q-6.25 3.703125 -15.546875 3.703125q-12.390625 0 -20.093742 -5.859375q-7.703125 -5.84375 -8.796875 -15.84375l16.890617 0q0.796875 3.203125 3.796875 5.046875q3.0 1.859375 7.40625 1.859375q5.296875 0 8.4375 -3.0625q3.15625 -3.046875 3.15625 -9.734375l0 -7.90625q-2.5 3.90625 -6.90625 6.359375q-4.390625 2.4375 -10.28125 2.4375q-6.90625 0 -12.515617 -3.546875q-5.59375 -3.546875 -8.84375 -10.09375q-3.25 -6.5625 -3.25 -15.15625q0 -8.59375 3.25 -15.09375q3.25 -6.5 8.84375 -10.0q5.6093674 -3.5 12.515617 -3.5zm17.1875 28.6875q0 -6.390625 -3.546875 -10.09375q-3.546875 -3.703125 -8.640625 -3.703125q-5.109375 0 -8.65625 3.65625q-3.546875 3.640625 -3.546875 10.046875q0 6.40625 3.546875 10.15625q3.546875 3.75 8.65625 3.75q5.09375 0 8.640625 -3.703125q3.546875 -3.703125 3.546875 -10.109375zm46.603058 -18.59375q3.0 -4.59375 7.5 -7.25q4.5 -2.65625 10.0 -2.65625l0 18.109375l-4.703125 0q-6.390625 0 -9.59375 2.75q-3.203125 2.75 -3.203125 9.640625l0 25.90625l-17.09375 0l0 -55.796875l17.09375 0l0 9.296875zm22.299957 18.5q0 -8.59375 3.25 -15.09375q3.25 -6.5 8.84375 -10.0q5.609375 -3.5 12.515625 -3.5q5.890625 0 10.343765 2.40625q4.453125 2.390625 6.84375 6.28125l0 -7.890625l17.109375 0l0 55.796875l-17.109375 0l0 -7.90625q-2.5 3.90625 -6.953125 6.3125q-4.4375153 2.390625 -10.343765 2.390625q-6.796875 0 -12.40625 -3.546875q-5.59375 -3.546875 -8.84375 -10.09375q-3.25 -6.5625 -3.25 -15.15625zm41.79689 0.09375q0 -6.390625 -3.546875 -10.09375q-3.546875 -3.703125 -8.64064 -3.703125q-5.109375 0 -8.65625 3.65625q-3.546875 3.640625 -3.546875 10.046875q0 6.40625 3.546875 10.15625q3.546875 3.75 8.65625 3.75q5.0937653 0 8.64064 -3.703125q3.546875 -3.703125 3.546875 -10.109375zm46.603058 -20.0q2.5 -3.890625 6.890625 -6.28125q4.40625 -2.40625 10.3125 -2.40625q6.90625 0 12.5 3.5q5.59375 3.5 8.84375 10.0q3.25 6.5 3.25 15.09375q0 8.59375 -3.25 15.15625q-3.25 6.546875 -8.84375 10.09375q-5.59375 3.546875 -12.5 3.546875q-5.796875 0 -10.25 -2.390625q-4.453125 -2.40625 -6.953125 -6.203125l0 34.390625l-17.09375 0l0 -82.390625l17.09375 0l0 7.890625zm24.40625 19.90625q0 -6.40625 -3.5625 -10.046875q-3.546875 -3.65625 -8.734375 -3.65625q-5.109375 0 -8.65625 3.703125q-3.546875 3.703125 -3.546875 10.09375q0 6.40625 3.546875 10.109375q3.546875 3.703125 8.65625 3.703125q5.09375 0 8.6875 -3.75q3.609375 -3.75 3.609375 -10.15625zm60.696808 -28.40625q9.59375 0 15.390625 6.359375q5.8125 6.34375 5.8125 17.453125l0 32.59375l-17.0 0l0 -30.296875q0 -5.609375 -2.90625 -8.703125q-2.890625 -3.09375 -7.796875 -3.09375q-4.90625 0 -7.8125 3.09375q-2.890625 3.09375 -2.890625 8.703125l0 30.296875l-17.09375 0l0 -74.0l17.09375 0l0 25.703125q2.609375 -3.703125 7.109375 -5.90625q4.5 -2.203125 10.09375 -2.203125zm55.806183 57.203125q-7.3125 0 -13.015625 -2.5q-5.6875 -2.5 -9.0 -6.84375q-3.296875 -4.359375 -3.6875 -9.75l16.890625 0q0.3125 2.890625 2.703125 4.703125q2.40625 1.796875 5.90625 1.796875q3.203125 0 4.953125 -1.25q1.75 -1.25 1.75 -3.25q0 -2.40625 -2.5 -3.546875q-2.5 -1.15625 -8.109375 -2.5625q-6.0 -1.390625 -10.0 -2.9375q-4.0 -1.5625 -6.90625 -4.90625q-2.890625 -3.34375 -2.890625 -9.046875q0 -4.796875 2.640625 -8.75q2.65625 -3.953125 7.796875 -6.25q5.15625 -2.296875 12.265625 -2.296875q10.5 0 16.546875 5.203125q6.046875 5.1875 6.953125 13.796875l-15.796875 0q-0.40625 -2.90625 -2.5625 -4.609375q-2.140625 -1.703125 -5.640625 -1.703125q-3.0 0 -4.609375 1.15625q-1.59375 1.15625 -1.59375 3.15625q0 2.390625 2.546875 3.59375q2.546875 1.203125 7.953125 2.40625q6.203125 1.59375 10.09375 3.140625q3.90625 1.546875 6.859375 5.0q2.953125 3.453125 3.046875 9.25q0 4.90625 -2.75 8.765625q-2.75 3.84375 -7.90625 6.046875q-5.140625 2.1875 -11.9375 2.1875z" fill-rule="nonzero"/><path fill="#ffffff" d="m170.14333 389.74643q0 2.390625 -0.296875 5.0l-38.703125 0q0.40625 5.203125 3.34375 7.953125q2.953125 2.75 7.265625 2.75q6.390625 0 8.890625 -5.40625l18.203125 0q-1.40625 5.5 -5.0625 9.90625q-3.640625 4.390625 -9.140625 6.890625q-5.5 2.5 -12.296875 2.5q-8.203125 0 -14.609367 -3.5q-6.390625 -3.5 -10.0 -10.0q-3.59375 -6.5 -3.59375 -15.203125q0 -8.6875 3.546875 -15.1875q3.5625 -6.5 9.953125 -10.0q6.4062424 -3.5 14.703117 -3.5q8.09375 0 14.390625 3.40625q6.3125 3.390625 9.859375 9.6875q3.546875 6.296875 3.546875 14.703125zm-17.5 -4.5q0 -4.40625 -3.0 -7.0q-3.0 -2.609375 -7.5 -2.609375q-4.296875 0 -7.25 2.5q-2.953125 2.5 -3.640625 7.109375l21.390625 0zm59.506195 33.296875l-10.703125 -15.5l-9.0 15.5l-18.5 0l18.40625 -28.5l-18.90625 -27.296875l19.203125 0l10.703125 15.390625l9.0 -15.390625l18.5 0l-18.703125 28.09375l19.203125 27.703125l-19.203125 0zm42.893692 -47.90625q2.5 -3.890625 6.890625 -6.28125q4.40625 -2.40625 10.3125 -2.40625q6.90625 0 12.5 3.5q5.59375 3.5 8.84375 10.0q3.25 6.5 3.25 15.09375q0 8.59375 -3.25 15.15625q-3.25 6.546875 -8.84375 10.09375q-5.59375 3.546875 -12.5 3.546875q-5.796875 0 -10.25 -2.390625q-4.453125 -2.40625 -6.953125 -6.203125l0 34.390625l-17.09375 0l0 -82.390625l17.09375 0l0 7.890625zm24.40625 19.90625q0 -6.40625 -3.5625 -10.046875q-3.546875 -3.65625 -8.734375 -3.65625q-5.109375 0 -8.65625 3.703125q-3.546875 3.703125 -3.546875 10.09375q0 6.40625 3.546875 10.109375q3.546875 3.703125 8.65625 3.703125q5.09375 0 8.6875 -3.75q3.609375 -3.75 3.609375 -10.15625zm43.493683 -46.0l0 74.0l-17.09375 0l0 -74.0l17.09375 0zm8.9999695 46.0q0 -8.59375 3.25 -15.09375q3.25 -6.5 8.84375 -10.0q5.609375 -3.5 12.515625 -3.5q5.8906555 0 10.3437805 2.40625q4.453125 2.390625 6.84375 6.28125l0 -7.890625l17.109375 0l0 55.796875l-17.109375 0l0 -7.90625q-2.5 3.90625 -6.953125 6.3125q-4.4375 2.390625 -10.3437805 2.390625q-6.796875 0 -12.40625 -3.546875q-5.59375 -3.546875 -8.84375 -10.09375q-3.25 -6.5625 -3.25 -15.15625zm41.796906 0.09375q0 -6.390625 -3.546875 -10.09375q-3.546875 -3.703125 -8.640625 -3.703125q-5.1094055 0 -8.6562805 3.65625q-3.546875 3.640625 -3.546875 10.046875q0 6.40625 3.546875 10.15625q3.546875 3.75 8.6562805 3.75q5.09375 0 8.640625 -3.703125q3.546875 -3.703125 3.546875 -10.109375zm38.103027 -33.6875q-4.5 0 -7.359375 -2.65625q-2.84375 -2.65625 -2.84375 -6.546875q0 -4.0 2.84375 -6.640625q2.859375 -2.65625 7.359375 -2.65625q4.40625 0 7.25 2.65625q2.859375 2.640625 2.859375 6.640625q0 3.890625 -2.859375 6.546875q-2.84375 2.65625 -7.25 2.65625zm8.5 5.796875l0 55.796875l-17.09375 0l0 -55.796875l17.09375 0zm46.40622 -0.609375q9.796875 0 15.640625 6.359375q5.859375 6.34375 5.859375 17.453125l0 32.59375l-17.0 0l0 -30.296875q0 -5.609375 -2.90625 -8.703125q-2.890625 -3.09375 -7.796875 -3.09375q-4.90625 0 -7.8125 3.09375q-2.890625 3.09375 -2.890625 8.703125l0 30.296875l-17.09375 0l0 -55.796875l17.09375 0l0 7.390625q2.609375 -3.6875 7.0 -5.84375q4.40625 -2.15625 9.90625 -2.15625zm85.99365 27.609375q0 2.390625 -0.296875 5.0l-38.703125 0q0.40625 5.203125 3.34375 7.953125q2.953125 2.75 7.265625 2.75q6.390625 0 8.890625 -5.40625l18.203125 0q-1.40625 5.5 -5.0625 9.90625q-3.640625 4.390625 -9.140625 6.890625q-5.5 2.5 -12.296875 2.5q-8.203125 0 -14.6093445 -3.5q-6.390625 -3.5 -10.0 -10.0q-3.59375 -6.5 -3.59375 -15.203125q0 -8.6875 3.546875 -15.1875q3.5625 -6.5 9.953125 -10.0q6.4062195 -3.5 14.7030945 -3.5q8.09375 0 14.390625 3.40625q6.3125 3.390625 9.859375 9.6875q3.546875 6.296875 3.546875 14.703125zm-17.5 -4.5q0 -4.40625 -3.0 -7.0q-3.0 -2.609375 -7.5 -2.609375q-4.296875 0 -7.25 2.5q-2.953125 2.5 -3.640625 7.109375l21.390625 0zm23.099976 5.296875q0 -8.59375 3.25 -15.09375q3.25 -6.5 8.84375 -10.0q5.609375 -3.5 12.515625 -3.5q5.5 0 10.046875 2.296875q4.546875 2.296875 7.140625 6.203125l0 -25.90625l17.109375 0l0 74.0l-17.109375 0l0 -8.0q-2.390625 4.0 -6.84375 6.40625q-4.453125 2.390625 -10.34375 2.390625q-6.90625 0 -12.515625 -3.546875q-5.59375 -3.546875 -8.84375 -10.09375q-3.25 -6.5625 -3.25 -15.15625zm41.796875 0.09375q0 -6.390625 -3.546875 -10.09375q-3.546875 -3.703125 -8.640625 -3.703125q-5.109375 0 -8.65625 3.65625q-3.546875 3.640625 -3.546875 10.046875q0 6.40625 3.546875 10.15625q3.546875 3.75 8.65625 3.75q5.09375 0 8.640625 -3.703125q3.546875 -3.703125 3.546875 -10.109375z" fill-rule="nonzero"/><path fill="#ffffff" d="m691.21783 175.46194l139.65356 81.921265l-139.65356 81.921265z" fill-rule="evenodd"/><path stroke="#ffffff" stroke-width="1.0" stroke-linejoin="round" stroke-linecap="butt" d="m691.21783 175.46194l139.65356 81.921265l-139.65356 81.921265z" fill-rule="evenodd"/></g></svg>