<svg height="2619" version="1.1" viewBox="0.0 0.0 960.0 540.0" fill="none" stroke="none" stroke-linecap="square" stroke-miterlimit="10" xmlns:xlink="http://www.w3.org/1999/xlink" xmlns="http://www.w3.org/2000/svg"><clipPath id="p.0"><path d="m0 0l960.0 0l0 540.0l-960.0 0l0 -540.0z" clip-rule="nonzero"/></clipPath><g clip-path="url(#p.0)"><path fill="#329874" d="m0 0l960.0 0l0 540.0l-960.0 0z" fill-rule="evenodd"/><path fill="#000000" fill-opacity="0.0" d="m102.34646 73.543304l607.4961 0l0 392.9134l-607.4961 0z" fill-rule="evenodd"/><path fill="#ffffff" d="m178.34645 108.34018l0 70.203125l-17.09375 0l0 -28.90625l-26.609375 0l0 28.90625l-17.093742 0l0 -70.203125l17.093742 0l0 27.5l26.609375 0l0 -27.5l17.09375 0zm37.69368 71.0q-8.1875 0 -14.75 -3.5q-6.546875 -3.5 -10.296875 -10.0q-3.75 -6.5 -3.75 -15.203125q0 -8.59375 3.796875 -15.140625q3.8125 -6.546875 10.40625 -10.046875q6.59375 -3.5 14.796875 -3.5q8.203125 0 14.796875 3.5q6.609375 3.5 10.40625 10.046875q3.796875 6.546875 3.796875 15.140625q0 8.609375 -3.859375 15.15625q-3.84375 6.546875 -10.5 10.046875q-6.640625 3.5 -14.84375 3.5zm0 -14.796875q4.90625 0 8.359375 -3.59375q3.453125 -3.609375 3.453125 -10.3125q0 -6.6875 -3.359375 -10.28125q-3.34375 -3.609375 -8.25 -3.609375q-5.0 0 -8.296875 3.546875q-3.296875 3.546875 -3.296875 10.34375q0 6.703125 3.25 10.3125q3.25 3.59375 8.140625 3.59375zm118.403076 -41.796875l-15.09375 55.796875l-18.90625 0l-8.796875 -36.203125l-9.09375 36.203125l-18.8125 0l-15.187515 -55.796875l17.093765 0l7.90625 39.890625l9.390625 -39.890625l18.109375 0l9.5 39.703125l7.796875 -39.703125l16.09375 0zm58.799896 41.296875l0 14.5l-8.703125 0q-9.296875 0 -14.5 -4.546875q-5.1875 -4.546875 -5.1875 -14.859375l0 -22.1875l-6.8125 0l0 -14.203125l6.8125 0l0 -13.609375l17.09375 0l0 13.609375l11.203125 0l0 14.203125l-11.203125 0l0 22.390625q0 2.5 1.203125 3.609375q1.203125 1.09375 4.0 1.09375l6.09375 0zm34.89682 15.296875q-8.1875 0 -14.75 -3.5q-6.546875 -3.5 -10.296875 -10.0q-3.75 -6.5 -3.75 -15.203125q0 -8.59375 3.796875 -15.140625q3.8125 -6.546875 10.40625 -10.046875q6.59375 -3.5 14.796875 -3.5q8.203125 0 14.796875 3.5q6.609375 3.5 10.40625 10.046875q3.796875 6.546875 3.796875 15.140625q0 8.609375 -3.859375 15.15625q-3.84375 6.546875 -10.5 10.046875q-6.640625 3.5 -14.84375 3.5zm0 -14.796875q4.90625 0 8.359375 -3.59375q3.453125 -3.609375 3.453125 -10.3125q0 -6.6875 -3.359375 -10.28125q-3.34375 -3.609375 -8.25 -3.609375q-5.0 0 -8.296875 3.546875q-3.296875 3.546875 -3.296875 10.34375q0 6.703125 3.25 10.3125q3.25 3.59375 8.140625 3.59375z" fill-rule="nonzero"/><path fill="#ffffff" d="m140.2527 299.34018q-7.3125 0 -13.015617 -2.5q-5.6875 -2.5 -9.0 -6.84375q-3.296875 -4.359375 -3.6875 -9.75l16.890617 0q0.3125 2.890625 2.703125 4.703125q2.40625 1.796875 5.90625 1.796875q3.203125 0 4.953125 -1.25q1.75 -1.25 1.75 -3.25q0 -2.40625 -2.5 -3.546875q-2.5 -1.15625 -8.109375 -2.5625q-6.0 -1.390625 -9.999992 -2.9375q-4.0 -1.5625 -6.90625 -4.90625q-2.890625 -3.34375 -2.890625 -9.046875q0 -4.796875 2.640625 -8.75q2.65625 -3.953125 7.796875 -6.25q5.1562424 -2.296875 12.265617 -2.296875q10.5 0 16.546875 5.203125q6.046875 5.1875 6.953125 13.796875l-15.796875 0q-0.40625 -2.90625 -2.5625 -4.609375q-2.140625 -1.703125 -5.640625 -1.703125q-3.0 0 -4.609375 1.15625q-1.59375 1.15625 -1.59375 3.15625q0 2.390625 2.546875 3.59375q2.546875 1.203125 7.953125 2.40625q6.203125 1.59375 10.09375 3.140625q3.90625 1.546875 6.859375 5.0q2.953125 3.453125 3.046875 9.25q0 4.90625 -2.75 8.765625q-2.75 3.84375 -7.90625 6.046875q-5.140625 2.1875 -11.9375 2.1875zm64.19057 -15.296875l0 14.5l-8.703125 0q-9.296875 0 -14.5 -4.546875q-5.1875 -4.546875 -5.1875 -14.859375l0 -22.1875l-6.8125 0l0 -14.203125l6.8125 0l0 -13.609375l17.09375 0l0 13.609375l11.203125 0l0 14.203125l-11.203125 0l0 22.390625q0 2.5 1.203125 3.609375q1.203125 1.09375 4.0 1.09375l6.09375 0zm6.0999603 -13.5q0 -8.59375 3.25 -15.09375q3.25 -6.5 8.84375 -10.0q5.609375 -3.5 12.515625 -3.5q5.890625 0 10.34375 2.40625q4.453125 2.390625 6.84375 6.28125l0 -7.890625l17.10939 0l0 55.796875l-17.10939 0l0 -7.90625q-2.5 3.90625 -6.953125 6.3125q-4.4375 2.390625 -10.34375 2.390625q-6.796875 0 -12.40625 -3.546875q-5.59375 -3.546875 -8.84375 -10.09375q-3.25 -6.5625 -3.25 -15.15625zm41.796875 0.09375q0 -6.390625 -3.546875 -10.09375q-3.546875 -3.703125 -8.640625 -3.703125q-5.109375 0 -8.65625 3.65625q-3.546875 3.640625 -3.546875 10.046875q0 6.40625 3.546875 10.15625q3.546875 3.75 8.65625 3.75q5.09375 0 8.640625 -3.703125q3.546875 -3.703125 3.546875 -10.109375zm46.603073 -18.59375q3.0 -4.59375 7.5 -7.25q4.5 -2.65625 10.0 -2.65625l0 18.109375l-4.703125 0q-6.390625 0 -9.59375 2.75q-3.203125 2.75 -3.203125 9.640625l0 25.90625l-17.09375 0l0 -55.796875l17.09375 0l0 9.296875zm56.799957 32.0l0 14.5l-8.703125 0q-9.296875 0 -14.5 -4.546875q-5.1875 -4.546875 -5.1875 -14.859375l0 -22.1875l-6.8125 0l0 -14.203125l6.8125 0l0 -13.609375l17.09375 0l0 13.609375l11.203125 0l0 14.203125l-11.203125 0l0 22.390625q0 2.5 1.203125 3.609375q1.203125 1.09375 4.0 1.09375l6.09375 0z" fill-rule="nonzero"/><path fill="#ffffff" d="m140.2527 419.34018q-7.3125 0 -13.015617 -2.5q-5.6875 -2.5 -9.0 -6.84375q-3.296875 -4.359375 -3.6875 -9.75l16.890617 0q0.3125 2.890625 2.703125 4.703125q2.40625 1.796875 5.90625 1.796875q3.203125 0 4.953125 -1.25q1.75 -1.25 1.75 -3.25q0 -2.40625 -2.5 -3.546875q-2.5 -1.15625 -8.109375 -2.5625q-6.0 -1.390625 -9.999992 -2.9375q-4.0 -1.5625 -6.90625 -4.90625q-2.890625 -3.34375 -2.890625 -9.046875q0 -4.796875 2.640625 -8.75q2.65625 -3.953125 7.796875 -6.25q5.1562424 -2.296875 12.265617 -2.296875q10.5 0 16.546875 5.203125q6.046875 5.1875 6.953125 13.796875l-15.796875 0q-0.40625 -2.90625 -2.5625 -4.609375q-2.140625 -1.703125 -5.640625 -1.703125q-3.0 0 -4.609375 1.15625q-1.59375 1.15625 -1.59375 3.15625q0 2.390625 2.546875 3.59375q2.546875 1.203125 7.953125 2.40625q6.203125 1.59375 10.09375 3.140625q3.90625 1.546875 6.859375 5.0q2.953125 3.453125 3.046875 9.25q0 4.90625 -2.75 8.765625q-2.75 3.84375 -7.90625 6.046875q-5.140625 2.1875 -11.9375 2.1875zm29.690567 -28.703125q0 -8.6875 3.546875 -15.1875q3.5625 -6.5 9.90625 -10.0q6.34375 -3.5 14.546875 -3.5q10.5 0 17.546875 5.5q7.0625 5.5 9.25 15.5l-18.1875 0q-2.3125 -6.40625 -8.90625 -6.40625q-4.703125 0 -7.5 3.65625q-2.796875 3.640625 -2.796875 10.4375q0 6.8125 2.796875 10.46875q2.796875 3.640625 7.5 3.640625q6.59375 0 8.90625 -6.40625l18.1875 0q-2.1875 9.796875 -9.296875 15.40625q-7.09375 5.59375 -17.5 5.59375q-8.203125 0 -14.546875 -3.5q-6.34375 -3.5 -9.90625 -10.0q-3.546875 -6.5 -3.546875 -15.203125zm80.99994 -18.59375q3.0 -4.59375 7.5 -7.25q4.5 -2.65625 10.0 -2.65625l0 18.109375l-4.703125 0q-6.390625 0 -9.59375 2.75q-3.203125 2.75 -3.203125 9.640625l0 25.90625l-17.09375 0l0 -55.796875l17.09375 0l0 9.296875zm22.299957 18.5q0 -8.59375 3.25 -15.09375q3.25 -6.5 8.84375 -10.0q5.609375 -3.5 12.515625 -3.5q5.890625 0 10.34375 2.40625q4.453125 2.390625 6.84375 6.28125l0 -7.890625l17.109375 0l0 55.796875l-17.109375 0l0 -7.90625q-2.5 3.90625 -6.953125 6.3125q-4.4375 2.390625 -10.34375 2.390625q-6.796875 0 -12.40625 -3.546875q-5.59375 -3.546875 -8.84375 -10.09375q-3.25 -6.5625 -3.25 -15.15625zm41.796875 0.09375q0 -6.390625 -3.546875 -10.09375q-3.546875 -3.703125 -8.640625 -3.703125q-5.109375 0 -8.65625 3.65625q-3.546875 3.640625 -3.546875 10.046875q0 6.40625 3.546875 10.15625q3.546875 3.75 8.65625 3.75q5.09375 0 8.640625 -3.703125q3.546875 -3.703125 3.546875 -10.109375zm46.603058 -20.0q2.5 -3.890625 6.890625 -6.28125q4.40625 -2.40625 10.3125 -2.40625q6.90625 0 12.5 3.5q5.59375 3.5 8.84375 10.0q3.25 6.5 3.25 15.09375q0 8.59375 -3.25 15.15625q-3.25 6.546875 -8.84375 10.09375q-5.59375 3.546875 -12.5 3.546875q-5.796875 0 -10.25 -2.390625q-4.453125 -2.40625 -6.953125 -6.203125l0 34.390625l-17.09375 0l0 -82.390625l17.09375 0l0 7.890625zm24.40625 19.90625q0 -6.40625 -3.5625 -10.046875q-3.546875 -3.65625 -8.734375 -3.65625q-5.109375 0 -8.65625 3.703125q-3.546875 3.703125 -3.546875 10.09375q0 6.40625 3.546875 10.109375q3.546875 3.703125 8.65625 3.703125q5.09375 0 8.6875 -3.75q3.609375 -3.75 3.609375 -10.15625zm34.993713 -33.59375q-4.5 0 -7.359375 -2.65625q-2.84375 -2.65625 -2.84375 -6.546875q0 -4.0 2.84375 -6.640625q2.859375 -2.65625 7.359375 -2.65625q4.40625 0 7.25 2.65625q2.859375 2.640625 2.859375 6.640625q0 3.890625 -2.859375 6.546875q-2.84375 2.65625 -7.25 2.65625zm8.5 5.796875l0 55.796875l-17.09375 0l0 -55.796875l17.09375 0zm46.40622 -0.609375q9.796875 0 15.640625 6.359375q5.859375 6.34375 5.859375 17.453125l0 32.59375l-17.0 0l0 -30.296875q0 -5.609375 -2.90625 -8.703125q-2.890625 -3.09375 -7.796875 -3.09375q-4.90625 0 -7.8125 3.09375q-2.890625 3.09375 -2.890625 8.703125l0 30.296875l-17.09375 0l0 -55.796875l17.09375 0l0 7.390625q2.609375 -3.6875 7.0 -5.84375q4.40625 -2.15625 9.90625 -2.15625zm54.603027 -0.1875q5.890625 0 10.34375 2.40625q4.453125 2.390625 6.84375 6.28125l0 -7.890625l17.109375 0l0 55.703125q0 7.6875 -3.0625 13.9375q-3.046875 6.25 -9.296875 9.953125q-6.25 3.703125 -15.546875 3.703125q-12.390625 0 -20.09375 -5.859375q-7.7030945 -5.84375 -8.7968445 -15.84375l16.890594 0q0.796875 3.203125 3.796875 5.046875q3.0 1.859375 7.40625 1.859375q5.296875 0 8.4375 -3.0625q3.15625 -3.046875 3.15625 -9.734375l0 -7.90625q-2.5 3.90625 -6.90625 6.359375q-4.390625 2.4375 -10.28125 2.4375q-6.90625 0 -12.515625 -3.546875q-5.59375 -3.546875 -8.8437195 -10.09375q-3.25 -6.5625 -3.25 -15.15625q0 -8.59375 3.25 -15.09375q3.2499695 -6.5 8.8437195 -10.0q5.609375 -3.5 12.515625 -3.5zm17.1875 28.6875q0 -6.390625 -3.546875 -10.09375q-3.546875 -3.703125 -8.640625 -3.703125q-5.109375 0 -8.65625 3.65625q-3.546875 3.640625 -3.546875 10.046875q0 6.40625 3.546875 10.15625q3.546875 3.75 8.65625 3.75q5.09375 0 8.640625 -3.703125q3.546875 -3.703125 3.546875 -10.109375zm50.00934 -46.1875q10.703125 0 17.140625 5.59375q6.453125 5.59375 6.453125 15.796875q0 9.40625 -6.15625 14.65625q-6.140625 5.25 -16.234375 5.34375l-0.5 7.5l-15.0 0l-0.5 -18.59375l6.0 0q7.6875 0 11.734375 -1.890625q4.0625 -1.90625 4.0625 -6.90625q0 -3.5 -1.90625 -5.5q-1.890625 -2.0 -5.296875 -2.0q-3.59375 0 -5.59375 2.046875q-2.0 2.046875 -2.0 5.546875l-16.109375 0q-0.203125 -6.09375 2.546875 -11.0q2.75 -4.90625 8.203125 -7.75q5.453125 -2.84375 13.15625 -2.84375zm-6.609375 74.890625q-4.5 0 -7.34375 -2.640625q-2.84375 -2.65625 -2.84375 -6.5625q0 -4.0 2.84375 -6.6875q2.84375 -2.703125 7.34375 -2.703125q4.40625 0 7.25 2.703125q2.859375 2.6875 2.859375 6.6875q0 3.90625 -2.859375 6.5625q-2.84375 2.640625 -7.25 2.640625z" fill-rule="nonzero"/><path fill="#ffffff" d="m691.21783 175.46194l139.65356 81.921265l-139.65356 81.921265z" fill-rule="evenodd"/><path stroke="#ffffff" stroke-width="1.0" stroke-linejoin="round" stroke-linecap="butt" d="m691.21783 175.46194l139.65356 81.921265l-139.65356 81.921265z" fill-rule="evenodd"/></g></svg>